<?xml version="1.0" standalone="no"?>
<!DOCTYPE svg PUBLIC "-//W3C//DTD SVG 20010904//EN"
 "http://www.w3.org/TR/2001/REC-SVG-20010904/DTD/svg10.dtd">
<svg version="1.0" xmlns="http://www.w3.org/2000/svg"
 width="500.000000pt" height="500.000000pt" viewBox="0 0 500.000000 500.000000"
 preserveAspectRatio="xMidYMid meet">

<g transform="translate(0.000000,500.000000) scale(0.100000,-0.100000)"
fill="#000000" stroke="none">
<path d="M1485 3010 c-277 -26 -435 -147 -435 -336 0 -57 19 -115 48 -147 28
-31 109 -67 185 -83 38 -8 154 -19 256 -23 184 -9 229 -17 263 -48 72 -65 -76
-117 -267 -94 -117 14 -234 44 -313 81 l-62 29 -15 -36 c-8 -19 -15 -38 -15
-42 0 -4 -23 -47 -51 -95 -27 -49 -49 -89 -47 -91 14 -12 79 -38 158 -63 245
-78 584 -83 777 -10 80 29 156 106 177 178 32 109 14 223 -45 277 -70 63 -175
91 -389 104 -91 6 -188 12 -216 15 -59 6 -114 36 -114 62 0 35 35 53 121 64
146 18 378 -26 497 -93 38 -21 54 -26 57 -17 2 7 21 58 40 113 20 55 39 107
42 116 6 21 -110 71 -245 105 -79 20 -283 47 -317 43 -5 -1 -46 -5 -90 -9z"/>
<path d="M2285 2868 c-77 -27 -122 -108 -111 -201 7 -65 38 -111 90 -136 42
-21 54 -21 802 -21 l760 0 44 23 c67 33 90 74 90 162 0 88 -23 129 -90 163
l-44 22 -756 -1 c-496 0 -765 -4 -785 -11z m1542 -111 c28 -28 25 -103 -6
-128 -22 -18 -49 -19 -754 -19 l-731 0 -23 22 c-32 30 -32 90 2 124 l24 24
735 -2 c690 -3 736 -4 753 -21z"/>
<path d="M2192 2270 l0 -180 59 0 59 0 0 70 0 70 90 0 90 0 0 -70 0 -70 58 0
57 0 0 180 0 180 -57 0 -58 0 0 -65 0 -65 -90 0 -90 0 0 65 0 65 -59 0 -59 0
0 -180z"/>
<path d="M2759 2423 c-35 -95 -122 -319 -126 -325 -2 -5 25 -8 60 -8 64 0 64
0 73 33 l10 32 82 3 83 3 14 -36 c15 -35 16 -35 76 -35 54 0 60 2 55 18 -4 9
-35 90 -69 179 l-62 163 -93 0 c-92 0 -93 0 -103 -27z m126 -105 c10 -29 20
-59 23 -65 3 -9 -11 -13 -48 -13 -38 0 -51 3 -47 13 2 6 13 36 23 65 10 28 21
52 24 52 3 0 14 -24 25 -52z"/>
<path d="M3122 2270 l0 -180 59 0 59 0 0 61 0 60 37 -3 c33 -3 41 -9 71 -60
l34 -58 65 0 c71 0 70 -4 16 71 -18 26 -33 49 -33 52 0 2 14 10 30 17 59 24
79 113 38 165 -36 46 -73 55 -232 55 l-144 0 0 -180z m262 80 c29 -11 34 -35
10 -44 -9 -3 -47 -6 -85 -6 l-69 0 0 30 c0 30 0 30 59 30 33 0 71 -4 85 -10z"/>
<path d="M3560 2333 c0 -94 4 -126 19 -160 29 -63 58 -77 170 -81 85 -3 101
-1 141 20 71 36 90 84 90 225 l0 113 -60 0 -60 0 0 -109 c0 -137 -10 -155 -90
-155 -80 0 -90 18 -90 155 l0 109 -60 0 -60 0 0 -117z"/>
</g>
</svg>
