<?xml version="1.0" standalone="no"?>
<!DOCTYPE svg PUBLIC "-//W3C//DTD SVG 20010904//EN"
 "http://www.w3.org/TR/2001/REC-SVG-20010904/DTD/svg10.dtd">
<svg version="1.0" xmlns="http://www.w3.org/2000/svg"
 width="500.000000pt" height="500.000000pt" viewBox="0 0 500.000000 500.000000"
 preserveAspectRatio="xMidYMid meet">

<g transform="translate(0.000000,500.000000) scale(0.100000,-0.100000)"
fill="#000000" stroke="none">
<path d="M1458 3010 c-187 -23 -323 -97 -381 -205 -18 -32 -22 -57 -22 -131 0
-83 2 -93 27 -126 64 -84 170 -115 443 -128 105 -5 205 -14 224 -19 71 -22 91
-67 44 -98 -23 -15 -50 -18 -183 -18 -171 1 -261 18 -386 75 l-62 28 -64 -126
c-34 -70 -64 -130 -66 -133 -4 -10 106 -56 188 -79 125 -34 248 -50 395 -50
376 1 545 107 545 341 0 81 -21 131 -72 174 -76 65 -191 91 -446 104 -143 6
-187 12 -218 27 -53 26 -54 61 -4 87 31 16 54 18 185 14 170 -6 266 -26 378
-82 45 -22 70 -30 72 -22 2 7 22 61 45 121 22 60 40 112 40 116 0 10 -99 53
-180 78 -151 48 -361 70 -502 52z"/>
<path d="M2285 2868 c-77 -27 -122 -108 -111 -201 7 -65 38 -111 90 -136 42
-21 54 -21 802 -21 l760 0 44 23 c67 33 90 74 90 162 0 88 -23 129 -90 163
l-44 22 -756 -1 c-496 0 -765 -4 -785 -11z m1542 -111 c28 -28 25 -103 -6
-128 -22 -18 -49 -19 -754 -19 l-731 0 -23 22 c-32 30 -32 90 2 124 l24 24
735 -2 c690 -3 736 -4 753 -21z"/>
<path d="M2192 2270 l0 -180 59 0 59 0 0 70 0 70 90 0 90 0 0 -70 0 -70 58 0
58 0 -1 180 0 180 -57 0 -58 0 0 -65 0 -65 -90 0 -90 0 0 65 0 65 -59 0 -59 0
0 -180z"/>
<path d="M2761 2428 c-20 -49 -84 -216 -106 -275 l-24 -63 63 0 c63 0 63 0 72
33 l10 32 84 0 84 0 10 -32 c9 -33 9 -33 72 -33 35 0 64 3 64 7 0 4 -30 85
-67 180 l-68 173 -93 0 c-87 0 -93 -1 -101 -22z m149 -185 c0 -2 -22 -3 -50
-3 -27 0 -50 1 -50 3 0 5 42 112 47 121 4 6 52 -102 53 -121z"/>
<path d="M3122 2270 l0 -180 59 0 59 0 0 61 0 60 37 -3 c33 -3 41 -9 71 -60
l34 -58 64 0 c35 0 64 2 64 5 0 3 -18 31 -41 61 -22 31 -39 56 -37 58 1 1 16
8 31 16 53 26 73 101 42 159 -24 48 -75 61 -239 61 l-144 0 0 -180z m279 73
c9 -9 9 -16 -1 -28 -9 -11 -32 -15 -86 -15 l-74 0 0 31 0 31 75 -4 c41 -2 80
-9 86 -15z"/>
<path d="M3560 2328 c0 -193 29 -231 183 -236 114 -4 159 10 201 61 31 38 31
41 34 168 l4 129 -61 0 -61 0 0 -99 c0 -55 -4 -111 -10 -125 -11 -29 -66 -48
-112 -39 -48 10 -58 35 -58 155 l0 108 -60 0 -60 0 0 -122z"/>
</g>
</svg>
